# xmcd
#
# Track frame offsets: 
#        150
#        5623
#        25372
#        47053
#        69191
#        91233
#        109183
#        130858
#        150456
#        172842
#        190320
#        211349
#        229212
#        251476
#
# Disc length: 3613 seconds
#
# Revision: 0
# Processed by: cddbd v1.5.2PL0 Copyright (c) Steve Scherf et al.
# Submitted via: ExactAudioCopyFreeDBPlugin 1.0
#
DISCID=b00e1b0e
DTITLE=J Beatz - Our Own World
DYEAR=2011
DGENRE=World
TTITLE0=Intro
TTITLE1=I'm In Love With You
TTITLE2=Baby Come Back
TTITLE3=Our Own World
TTITLE4=It's Getting Late
TTITLE5=Dance Attack
TTITLE6=Ou Met Kondane'm
TTITLE7=It Must Be Love
TTITLE8=Ou Gen Rezon
TTITLE9=Tout Neg Deye'l
TTITLE10=Mwen Anvi Viv
TTITLE11=At The Club
TTITLE12=Fanm Pan Nan
TTITLE13=Lose Control
EXTD=
EXTT0=
EXTT1=
EXTT2=
EXTT3=
EXTT4=
EXTT5=
EXTT6=
EXTT7=
EXTT8=
EXTT9=
EXTT10=
EXTT11=
EXTT12=
EXTT13=
PLAYORDER=
